<svg width="650" height="650" viewBox="0 0 650 650" fill="none" xmlns="http://www.w3.org/2000/svg">
<path d="M325 650C260.721 650 197.886 630.939 144.44 595.228C90.9938 559.516 49.3378 508.758 24.7393 449.372C0.140818 389.986 -6.29527 324.64 6.24493 261.596C18.7851 198.552 49.7384 140.642 95.1904 95.1904C140.642 49.7384 198.552 18.7851 261.596 6.24493C324.64 -6.29527 389.986 0.140818 449.372 24.7393C508.758 49.3378 559.516 90.9938 595.228 144.44C630.939 197.886 650 260.721 650 325C650 411.195 615.759 493.86 554.81 554.81C493.86 615.759 411.195 650 325 650ZM325 19.6971C264.617 19.6971 205.59 37.6028 155.383 71.1499C105.176 104.697 66.0446 152.379 42.9369 208.166C19.8293 263.952 13.7832 325.339 25.5634 384.562C37.3436 443.785 66.4209 498.184 109.118 540.882C151.816 583.579 206.215 612.657 265.438 624.437C324.661 636.217 386.048 630.171 441.834 607.063C497.621 583.956 545.303 544.824 578.85 494.617C612.397 444.41 630.303 385.383 630.303 325C630.303 244.029 598.137 166.374 540.882 109.118C483.626 51.8629 405.971 19.6971 325 19.6971Z" fill="white"/>
</svg>
