<svg width="324" height="451" viewBox="0 0 324 451" fill="none" xmlns="http://www.w3.org/2000/svg">
<path fill-rule="evenodd" clip-rule="evenodd" d="M265.834 254.051C301.385 227.686 324 188.049 324 143.725C324 64.3481 251.47 0 162 0C72.5296 0 0 64.3481 0 143.725C0 183.504 18.2155 219.509 47.6498 245.532C49.4681 247.237 52.3109 249.759 56.2 252.8C73.0894 266.008 102.774 291.145 106.138 316.42V344.455C106.138 354.037 114.908 361.791 125.727 361.791H198.273C209.095 361.791 217.862 354.029 217.862 344.455V315.086C221.825 291.082 248.995 267.366 265.834 254.051ZM106.138 381.615C106.138 376.141 110.939 371.703 116.749 371.703H207.251C213.111 371.703 217.862 376.103 217.862 381.615C217.862 387.09 213.061 391.528 207.251 391.528H162H116.749C110.889 391.528 106.138 387.128 106.138 381.615ZM117.31 411.352C117.31 405.877 122.307 401.44 128.45 401.44H195.55C201.702 401.44 206.69 405.839 206.69 411.352C206.69 416.828 201.693 421.264 195.55 421.264H128.45C122.298 421.264 117.31 416.863 117.31 411.352ZM128.483 441.088C128.483 435.612 133.522 431.176 139.703 431.176H184.297C190.494 431.176 195.517 435.577 195.517 441.088C195.517 446.564 190.478 451 184.297 451H139.703C133.506 451 128.483 446.599 128.483 441.088Z" fill="white"/>
</svg>
